<svg width="160" height="40" viewBox="0 0 160 40" fill="none" xmlns="http://www.w3.org/2000/svg">
<g clip-path="url(#clip0_843_4156)">
<path d="M49.4746 4.75977C52.7385 4.75977 55.3152 5.4469 57.1189 6.82117C58.9227 8.19543 59.8675 10.128 59.8675 12.5759C59.8675 14.3796 59.3521 15.8827 58.4073 17.0423C57.4625 18.2018 56.0882 18.9748 54.2845 19.3613C58.7509 20.1344 61.027 22.4964 61.027 26.4474C61.027 29.0671 60.0393 31.1285 58.1067 32.5887C56.1741 34.0918 53.4256 34.8218 49.8611 34.8218H38.4375V4.75977H49.4746ZM43.3763 17.5147H49.6034C51.2783 17.5147 52.5667 17.1282 53.5115 16.3551C54.4563 15.5821 54.9287 14.5514 54.9287 13.1771C54.9287 11.8458 54.4563 10.8151 53.5115 10.0421C52.5667 9.26908 51.2783 8.88257 49.6034 8.88257H43.3763V17.5147ZM43.3763 30.6561H49.904C51.8366 30.6561 53.3397 30.2696 54.3704 29.4966C55.4011 28.7235 55.9594 27.6069 55.9594 26.1897C55.9594 24.7296 55.4011 23.613 54.3704 22.797C53.2968 22.024 51.7937 21.5945 49.904 21.5945H43.3763V30.6561Z" fill="#6078EA"/>
<path d="M71.4286 34.9525C68.9821 34.9525 67.1683 34.2917 65.9872 32.97C64.8343 31.6202 64.2578 29.6518 64.2578 27.0646V4.79297H69.5305V26.8116C69.5305 27.6271 69.6429 28.3301 69.8679 28.9206C70.121 29.483 70.4866 29.9048 70.9646 30.186C71.4427 30.4673 72.0332 30.6079 72.7362 30.6079C73.0456 30.6079 73.3549 30.5938 73.6642 30.5657C73.9735 30.5376 74.2688 30.4813 74.55 30.397L74.4657 34.5729C73.9595 34.6854 73.4533 34.7697 72.9471 34.826C72.4691 34.9103 71.9629 34.9525 71.4286 34.9525Z" fill="#6078EA"/>
<path d="M101.219 34.8203V12.2636H105.732V17.958C106.041 16.4114 106.857 14.9772 108.179 13.6556C109.5 12.3058 111.286 11.6309 113.536 11.6309C115.392 11.6309 116.952 12.1652 118.218 13.2337C119.483 14.2742 120.327 15.8349 120.749 17.9159C121.227 16.1724 122.141 14.696 123.49 13.4868C124.868 12.2495 126.626 11.6309 128.763 11.6309C131.069 11.6309 132.911 12.4182 134.289 13.993C135.695 15.5397 136.398 17.8315 136.398 20.8685V34.8203H131.842V21.8809C131.842 19.9968 131.435 18.5064 130.619 17.4097C129.804 16.2849 128.608 15.7224 127.034 15.7224C125.15 15.7224 123.673 16.4255 122.605 17.8315C121.564 19.2094 121.044 20.9248 121.044 22.9776V34.8203H116.531V21.8809C116.531 19.9968 116.123 18.5064 115.307 17.4097C114.492 16.2849 113.297 15.7224 111.722 15.7224C109.838 15.7224 108.361 16.4255 107.293 17.8315C106.252 19.2094 105.732 20.9248 105.732 22.9776V34.8203H101.219Z" fill="#6078EA"/>
<path d="M84.9723 34.915C82.6945 34.915 80.8667 34.1276 79.4888 32.5528C78.1108 30.9781 77.4219 28.6862 77.4219 25.6773V12.2637H81.9353V24.5806C81.9353 26.4647 82.343 27.9691 83.1585 29.094C84.0021 30.1907 85.2113 30.739 86.7861 30.739C88.6702 30.739 90.1325 30.0501 91.1729 28.6722C92.2134 27.2661 92.7337 25.5507 92.7337 23.5261V12.2637H97.2892V34.8204H92.7337V28.5034C92.593 29.1783 92.34 29.8673 91.9744 30.5703C91.6369 31.2733 91.1589 31.9623 90.5402 32.6372C89.9497 33.3121 89.1623 33.8604 88.1781 34.2823C87.222 34.7041 86.1534 34.915 84.9723 34.915Z" fill="#6078EA"/>
<path d="M139.997 17.7505C141.695 15.0246 144.868 11.5391 150.767 11.5391C156.621 11.5391 160.553 14.98 160.553 20.2977V34.8203H155.727V30.9332H155.101C154.163 32.676 152.375 34.8656 147.728 34.8656C142.768 34.8656 139.461 32.2291 139.461 28.0732C139.461 24.2748 142.5 22.0405 146.79 21.6383L155.638 20.6999V19.9402C155.638 17.5271 153.895 15.5609 150.543 15.5609C147.192 15.5609 145.226 17.5271 144.019 20.1189L139.997 17.7505ZM144.555 27.8945C144.555 29.5926 146.119 30.7544 148.845 30.7544C153.046 30.7544 155.638 28.2966 155.638 24.677V24.2748L148.13 25.0792C145.806 25.3473 144.555 26.3304 144.555 27.8945Z" fill="#6078EA"/>
<path d="M10.6628 13.4277C6.39149 13.4276 2.19395 14.087 0 13.4289V26.7229C0.562585 32.3873 3.46331 35.7396 6.73467 37.6228C11.6431 40.4484 18.2614 39.982 22.5254 36.2544C26.4926 32.7863 27.1151 27.894 26.7223 25.1445C24.748 13.954 16.2498 13.4279 10.6628 13.4277Z" fill="#6078EA"/>
<g style="mix-blend-mode:multiply">
<path d="M10.6628 3.7451e-06C6.06496 -0.00186126 2.19395 0.659304 0 0.00112025V13.2952C0.562585 18.9595 3.46331 22.3119 6.73466 24.1951C11.6431 27.0207 18.2614 26.5542 22.5254 22.8267C26.4926 19.3586 27.1151 14.4662 26.7223 11.7168C24.748 0.526245 12.2422 0.00064439 10.6628 3.7451e-06Z" fill="#F57EC8"/>
</g>
</g>
<defs>
<clipPath id="clip0_843_4156">
<rect width="160" height="40" fill="white"/>
</clipPath>
</defs>
</svg>
