<svg width="553" height="137" viewBox="0 0 553 137" fill="none" xmlns="http://www.w3.org/2000/svg">
<g clip-path="url(#clip0_843_4156)">
<g style="mix-blend-mode:multiply">
<path d="M36.7462 1.29064e-05C20.9011 -0.00641428 7.56079 2.2721 0 0.00386062V45.8179C1.93878 65.3384 11.9353 76.8913 23.209 83.3811C40.1244 93.1186 62.9325 91.5113 77.6271 78.6653C91.2987 66.7135 93.444 49.8536 92.0904 40.3785C85.2865 1.81355 42.1892 0.0022207 36.7462 1.29064e-05Z" fill="#F57EC8"/>
</g>
<path d="M170.505 16.4004C181.753 16.4004 190.633 18.7684 196.849 23.5044C203.065 28.2404 206.321 34.9004 206.321 43.3364C206.321 49.5524 204.545 54.7324 201.289 58.7284C198.033 62.7244 193.297 65.3884 187.081 66.7204C202.473 69.3844 210.317 77.5244 210.317 91.1404C210.317 100.168 206.913 107.272 200.253 112.304C193.593 117.484 184.121 120 171.837 120H132.469V16.4004H170.505ZM149.489 60.3564H170.949C176.721 60.3564 181.161 59.0244 184.417 56.3604C187.673 53.6964 189.301 50.1444 189.301 45.4084C189.301 40.8204 187.673 37.2684 184.417 34.6044C181.161 31.9404 176.721 30.6084 170.949 30.6084H149.489V60.3564ZM149.489 105.644H171.985C178.645 105.644 183.825 104.312 187.377 101.648C190.929 98.9844 192.853 95.1364 192.853 90.2524C192.853 85.2204 190.929 81.3724 187.377 78.5604C183.677 75.8964 178.497 74.4164 171.985 74.4164H149.489V105.644Z" fill="#6078EA"/>
<path d="M246.157 120.454C237.726 120.454 231.475 118.176 227.405 113.621C223.432 108.97 221.445 102.186 221.445 93.2703V16.5176H239.616V92.3981C239.616 95.2085 240.004 97.6312 240.779 99.6663C241.651 101.605 242.911 103.058 244.558 104.027C246.206 104.996 248.241 105.481 250.664 105.481C251.73 105.481 252.796 105.432 253.862 105.336C254.928 105.239 255.945 105.045 256.914 104.754L256.624 119.145C254.879 119.533 253.135 119.824 251.39 120.017C249.743 120.308 247.999 120.454 246.157 120.454Z" fill="#6078EA"/>
<path d="M348.812 120V42.2645H364.367V61.8887C365.433 56.5587 368.243 51.6163 372.798 47.0615C377.352 42.4098 383.506 40.084 391.259 40.084C397.655 40.084 403.034 41.9253 407.395 45.6079C411.756 49.1935 414.663 54.572 416.116 61.7434C417.764 55.7349 420.914 50.6472 425.565 46.48C430.314 42.216 436.371 40.084 443.736 40.084C451.682 40.084 458.03 42.7975 462.779 48.2244C467.624 53.5545 470.047 61.4526 470.047 71.9189V120H454.347V75.4077C454.347 68.9147 452.942 63.7785 450.132 59.999C447.321 56.1226 443.203 54.1844 437.776 54.1844C431.283 54.1844 426.195 56.6071 422.513 61.4526C418.927 66.2012 417.134 72.1127 417.134 79.1871V120H401.58V75.4077C401.58 68.9147 400.175 63.7785 397.364 59.999C394.554 56.1226 390.435 54.1844 385.008 54.1844C378.515 54.1844 373.428 56.6071 369.745 61.4526C366.159 66.2012 364.367 72.1127 364.367 79.1871V120H348.812Z" fill="#6078EA"/>
<path d="M292.833 120.327C284.983 120.327 278.684 117.613 273.935 112.186C269.187 106.759 266.812 98.861 266.812 88.4917V42.2656H282.367V84.7122C282.367 91.2052 283.772 96.3898 286.582 100.266C289.489 104.046 293.657 105.935 299.084 105.935C305.576 105.935 310.616 103.561 314.201 98.8126C317.787 93.9671 319.58 88.0556 319.58 81.0781V42.2656H335.279V120.001H319.58V98.2311C319.095 100.557 318.223 102.931 316.963 105.354C315.8 107.777 314.153 110.151 312.021 112.477C309.986 114.803 307.272 116.692 303.881 118.146C300.586 119.6 296.903 120.327 292.833 120.327Z" fill="#6078EA"/>
<path d="M482.465 61.1736C488.317 51.7796 499.251 39.7676 519.579 39.7676C539.753 39.7676 553.305 51.6256 553.305 69.9516V120H536.673V106.604H534.517C531.283 112.61 525.123 120.156 509.107 120.156C492.013 120.156 480.617 111.07 480.617 96.7476C480.617 83.6576 491.089 75.9576 505.873 74.5716L536.365 71.3376V68.7196C536.365 60.4036 530.359 53.6276 518.809 53.6276C507.259 53.6276 500.483 60.4036 496.325 69.3356L482.465 61.1736ZM498.173 96.1316C498.173 101.984 503.563 105.988 512.957 105.988C527.433 105.988 536.365 97.5176 536.365 85.0436V83.6576L510.493 86.4296C502.485 87.3536 498.173 90.7416 498.173 96.1316Z" fill="#6078EA"/>
<path d="M36.7462 46.2754C22.0264 46.2749 7.56079 48.5475 0 46.2792V92.0933C1.93878 111.614 11.9353 123.167 23.209 129.656C40.1244 139.394 62.9325 137.787 77.6271 124.941C91.2987 112.989 93.444 96.129 92.0904 86.6538C85.2865 48.0889 56 46.276 36.7462 46.2754Z" fill="#6078EA"/>
</g>
<defs>
<clipPath id="clip0_843_4156">
<rect width="553" height="137" fill="white"/>
</clipPath>
</defs>
</svg>
