<svg width="120" height="30" viewBox="0 0 120 30" fill="none" xmlns="http://www.w3.org/2000/svg">
<g clip-path="url(#clip0_844_4165)">
<path d="M37.1059 3.57227C39.5538 3.57227 41.4864 4.08762 42.8392 5.11832C44.192 6.14902 44.9006 7.59844 44.9006 9.43437C44.9006 10.7872 44.5141 11.9145 43.8055 12.7841C43.0969 13.6538 42.0662 14.2336 40.7134 14.5235C44.0632 15.1032 45.7703 16.8747 45.7703 19.838C45.7703 21.8028 45.0294 23.3488 43.58 24.4439C42.1306 25.5713 40.0692 26.1188 37.3958 26.1188H28.8281V3.57227H37.1059ZM32.5322 13.1384H37.2026C38.4587 13.1384 39.425 12.8486 40.1336 12.2688C40.8422 11.689 41.1965 10.916 41.1965 9.8853C41.1965 8.88681 40.8422 8.11379 40.1336 7.53402C39.425 6.95425 38.4587 6.66437 37.2026 6.66437H32.5322V13.1384ZM32.5322 22.9945H37.428C38.8774 22.9945 40.0048 22.7046 40.7778 22.1249C41.5508 21.5451 41.9695 20.7077 41.9695 19.6447C41.9695 18.5496 41.5508 17.7122 40.7778 17.1002C39.9726 16.5204 38.8452 16.1983 37.428 16.1983H32.5322V22.9945Z" fill="#6078EA"/>
<path d="M53.5734 26.2154C51.7385 26.2154 50.3782 25.7197 49.4924 24.7285C48.6277 23.7161 48.1953 22.2398 48.1953 20.2995V3.5957H52.1498V20.1096C52.1498 20.7213 52.2342 21.2485 52.4029 21.6914C52.5927 22.1132 52.8669 22.4296 53.2254 22.6405C53.584 22.8514 54.0269 22.9569 54.5541 22.9569C54.7861 22.9569 55.0181 22.9463 55.2501 22.9252C55.4821 22.9041 55.7036 22.862 55.9145 22.7987L55.8512 25.9306C55.4716 26.015 55.0919 26.0783 54.7123 26.1205C54.3538 26.1837 53.9741 26.2154 53.5734 26.2154Z" fill="#6078EA"/>
<path d="M75.9141 26.1167V9.19915H79.2991V13.47C79.5311 12.31 80.1427 11.2344 81.134 10.2431C82.1252 9.23078 83.4645 8.72461 85.1517 8.72461C86.5437 8.72461 87.7143 9.12533 88.6633 9.92677C89.6124 10.7071 90.2451 11.8777 90.5615 13.4384C90.92 12.1307 91.6055 11.0235 92.6178 10.1166C93.6513 9.1886 94.9694 8.72461 96.5723 8.72461C98.3017 8.72461 99.6832 9.31515 100.717 10.4962C101.771 11.6562 102.298 13.3751 102.298 15.6529V26.1167H98.8817V16.4121C98.8817 14.9991 98.5759 13.8813 97.9643 13.0587C97.3527 12.2151 96.4563 11.7933 95.2752 11.7933C93.8622 11.7933 92.7549 12.3206 91.9535 13.3751C91.1731 14.4085 90.7829 15.6951 90.7829 17.2347V26.1167H87.3979V16.4121C87.3979 14.9991 87.0921 13.8813 86.4805 13.0587C85.8688 12.2151 84.9725 11.7933 83.7914 11.7933C82.3783 11.7933 81.2711 12.3206 80.4696 13.3751C79.6893 14.4085 79.2991 15.6951 79.2991 17.2347V26.1167H75.9141Z" fill="#6078EA"/>
<path d="M63.7253 26.1877C62.017 26.1877 60.6461 25.5972 59.6127 24.4161C58.5792 23.235 58.0625 21.5161 58.0625 19.2594V9.19922H61.4475V18.4369C61.4475 19.85 61.7534 20.9783 62.365 21.8219C62.9977 22.6445 63.9046 23.0557 65.0857 23.0557C66.4987 23.0557 67.5955 22.539 68.3758 21.5056C69.1562 20.4511 69.5463 19.1645 69.5463 17.646V9.19922H72.963V26.1168H69.5463V21.379C69.4409 21.8852 69.2511 22.4019 68.9769 22.9292C68.7238 23.4565 68.3653 23.9732 67.9013 24.4794C67.4584 24.9855 66.8678 25.3968 66.1297 25.7132C65.4126 26.0295 64.6111 26.1877 63.7253 26.1877Z" fill="#6078EA"/>
<path d="M104.996 13.3129C106.27 11.2685 108.649 8.6543 113.073 8.6543C117.464 8.6543 120.413 11.235 120.413 15.2233V26.1153H116.793V23.1999H116.324C115.62 24.507 114.28 26.1492 110.794 26.1492C107.074 26.1492 104.594 24.1718 104.594 21.0549C104.594 18.2061 106.873 16.5304 110.09 16.2287L116.726 15.5249V14.9551C116.726 13.1453 115.419 11.6707 112.906 11.6707C110.392 11.6707 108.917 13.1453 108.012 15.0892L104.996 13.3129ZM108.414 20.9208C108.414 22.1944 109.588 23.0658 111.632 23.0658C114.782 23.0658 116.726 21.2225 116.726 18.5078V18.2061L111.096 18.8094C109.353 19.0105 108.414 19.7478 108.414 20.9208Z" fill="#6078EA"/>
<path d="M7.99712 10.0684C4.79362 10.0683 1.64546 10.5628 0 10.0692V20.0398C0.421939 24.288 2.59748 26.8023 5.051 28.2147C8.73231 30.3338 13.6961 29.984 16.894 27.1884C19.8694 24.5873 20.3363 20.918 20.0417 18.856C18.561 10.463 12.1873 10.0685 7.99712 10.0684Z" fill="#6078EA"/>
<g style="mix-blend-mode:multiply">
<path d="M7.99712 2.80883e-06C4.54872 -0.00139594 1.64546 0.494478 0 0.000840191V9.97139C0.421938 14.2197 2.59748 16.7339 5.051 18.1463C8.7323 20.2655 13.6961 19.9157 16.894 17.12C19.8694 14.5189 20.3363 10.8497 20.0417 8.7876C18.561 0.394684 9.18167 0.000483292 7.99712 2.80883e-06Z" fill="#F57EC8"/>
</g>
</g>
<defs>
<clipPath id="clip0_844_4165">
<rect width="120" height="30" fill="white"/>
</clipPath>
</defs>
</svg>
