<svg width="24" height="24" viewBox="0 0 24 24" fill="none" xmlns="http://www.w3.org/2000/svg">
<mask id="mask0_197_216" style="mask-type:alpha" maskUnits="userSpaceOnUse" x="0" y="0" width="24" height="24">
<rect width="24" height="24" fill="#D9D9D9"/>
</mask>
<g mask="url(#mask0_197_216)">
<path d="M11 18C9.95 18 8.97083 17.8167 8.0625 17.45C7.15417 17.0833 6.35 16.5833 5.65 15.95C5.45 15.7667 5.35833 15.5458 5.375 15.2875C5.39167 15.0292 5.50833 14.8083 5.725 14.625C5.94167 14.4417 6.19167 14.3542 6.475 14.3625C6.75833 14.3708 7.00833 14.4667 7.225 14.65C7.75833 15.0833 8.3375 15.4167 8.9625 15.65C9.5875 15.8833 10.2667 16 11 16C12.6667 16 14.0833 15.4167 15.25 14.25C16.4167 13.0833 17 11.6667 17 10C17 8.33333 16.4167 6.91667 15.25 5.75C14.0833 4.58333 12.6667 4 11 4C9.61667 4 8.39583 4.41667 7.3375 5.25C6.27917 6.08333 5.575 7.14167 5.225 8.425C5.14167 8.70833 4.99167 8.95833 4.775 9.175C4.55833 9.39167 4.30833 9.5 4.025 9.5C3.74167 9.5 3.5125 9.3875 3.3375 9.1625C3.1625 8.9375 3.10833 8.68333 3.175 8.4C3.55833 6.56667 4.47083 5.04167 5.9125 3.825C7.35417 2.60833 9.05 2 11 2C13.2333 2 15.125 2.775 16.675 4.325C18.225 5.875 19 7.76667 19 10C19 10.9333 18.85 11.8125 18.55 12.6375C18.25 13.4625 17.8333 14.2167 17.3 14.9L21.3 18.9C21.4833 19.0833 21.575 19.3167 21.575 19.6C21.575 19.8833 21.4833 20.1167 21.3 20.3C21.1167 20.4833 20.8833 20.575 20.6 20.575C20.3167 20.575 20.0833 20.4833 19.9 20.3L15.9 16.3C15.2167 16.8333 14.4625 17.25 13.6375 17.55C12.8125 17.85 11.9333 18 11 18ZM10.675 11.35L11.6 8.475C11.65 8.34167 11.7292 8.22917 11.8375 8.1375C11.9458 8.04583 12.075 8 12.225 8H12.825C12.9583 8 13.075 8.03333 13.175 8.1C13.275 8.16667 13.3583 8.25833 13.425 8.375L14.75 11C14.9667 11 15.1458 11.0708 15.2875 11.2125C15.4292 11.3542 15.5 11.5333 15.5 11.75C15.5 11.9667 15.4292 12.1458 15.2875 12.2875C15.1458 12.4292 14.9667 12.5 14.75 12.5H14.3C14.1667 12.5 14.0375 12.4625 13.9125 12.3875C13.7875 12.3125 13.6917 12.2083 13.625 12.075L12.65 10.15L11.55 13.525C11.5 13.675 11.4167 13.7917 11.3 13.875C11.1833 13.9583 11.05 14 10.9 14H10.45C10.3 14 10.1625 13.9542 10.0375 13.8625C9.9125 13.7708 9.825 13.65 9.775 13.5L8.35 8.8L7.225 12C7.175 12.15 7.0875 12.2708 6.9625 12.3625C6.8375 12.4542 6.69167 12.5 6.525 12.5H2.75C2.53333 12.5 2.35417 12.4292 2.2125 12.2875C2.07083 12.1458 2 11.9667 2 11.75C2 11.5333 2.07083 11.3542 2.2125 11.2125C2.35417 11.0708 2.53333 11 2.75 11H6L7.475 6.725C7.525 6.575 7.6125 6.45833 7.7375 6.375C7.8625 6.29167 8 6.25 8.15 6.25H8.625C8.79167 6.25 8.93333 6.3 9.05 6.4C9.16667 6.5 9.25 6.625 9.3 6.775L10.675 11.35Z" fill="#1C1B1F"/>
</g>
</svg>
