<svg width="24" height="24" viewBox="0 0 24 24" fill="none" xmlns="http://www.w3.org/2000/svg">
<mask id="mask0_197_198" style="mask-type:alpha" maskUnits="userSpaceOnUse" x="0" y="0" width="24" height="24">
<rect width="24" height="24" fill="#D9D9D9"/>
</mask>
<g mask="url(#mask0_197_198)">
<path d="M16.15 13.0491L14 16.4991C13.8166 16.7824 13.5625 16.8991 13.2375 16.8491C12.9125 16.7991 12.7083 16.6074 12.625 16.2741L11.925 13.4741L5.09995 20.2991C4.91662 20.4824 4.68745 20.5782 4.41245 20.5866C4.13745 20.5949 3.89995 20.4991 3.69995 20.2991C3.51662 20.1157 3.42495 19.8824 3.42495 19.5991C3.42495 19.3157 3.51662 19.0824 3.69995 18.8991L10.525 12.0491L7.72495 11.3491C7.39162 11.2657 7.19995 11.0616 7.14995 10.7366C7.09995 10.4116 7.21662 10.1574 7.49995 9.97408L10.95 7.84908L10.65 3.77408C10.6166 3.44074 10.75 3.19908 11.05 3.04908C11.35 2.89908 11.625 2.93241 11.875 3.14908L15 5.77408L18.775 4.24908C19.0916 4.11574 19.3666 4.16574 19.6 4.39908C19.8333 4.63241 19.8833 4.90741 19.75 5.22408L18.225 8.99908L20.85 12.0991C21.0666 12.3491 21.1 12.6241 20.95 12.9241C20.8 13.2241 20.5583 13.3574 20.225 13.3241L16.15 13.0491ZM3.34995 6.34908C3.24995 6.24908 3.19995 6.13241 3.19995 5.99908C3.19995 5.86574 3.24995 5.74908 3.34995 5.64908L4.64995 4.34908C4.74995 4.24908 4.86662 4.19908 4.99995 4.19908C5.13328 4.19908 5.24995 4.24908 5.34995 4.34908L6.64995 5.64908C6.74995 5.74908 6.79995 5.86574 6.79995 5.99908C6.79995 6.13241 6.74995 6.24908 6.64995 6.34908L5.34995 7.64908C5.24995 7.74908 5.13328 7.79908 4.99995 7.79908C4.86662 7.79908 4.74995 7.74908 4.64995 7.64908L3.34995 6.34908ZM13.875 12.9241L15.075 10.9491L17.4 11.1241L15.9 9.34908L16.775 7.19908L14.625 8.07408L12.85 6.59908L13.025 8.89908L11.05 10.1241L13.3 10.6741L13.875 12.9241ZM17.65 20.6491L16.35 19.3491C16.25 19.2491 16.2 19.1324 16.2 18.9991C16.2 18.8657 16.25 18.7491 16.35 18.6491L17.65 17.3491C17.75 17.2491 17.8666 17.1991 18 17.1991C18.1333 17.1991 18.25 17.2491 18.35 17.3491L19.65 18.6491C19.75 18.7491 19.8 18.8657 19.8 18.9991C19.8 19.1324 19.75 19.2491 19.65 19.3491L18.35 20.6491C18.25 20.7491 18.1333 20.7991 18 20.7991C17.8666 20.7991 17.75 20.7491 17.65 20.6491Z" fill="#1C1B1F"/>
</g>
</svg>
