<svg width="24" height="24" viewBox="0 0 24 24" fill="none" xmlns="http://www.w3.org/2000/svg">
<g clip-path="url(#clip0_933_4175)">
<mask id="mask0_933_4175" style="mask-type:alpha" maskUnits="userSpaceOnUse" x="0" y="0" width="24" height="24">
<path d="M24 0H0V24H24V0Z" fill="#D9D9D9"/>
</mask>
<g mask="url(#mask0_933_4175)">
<path d="M4.99647 19C4.71314 19 4.47564 18.9042 4.28397 18.7125C4.0923 18.5208 3.99647 18.2833 3.99647 18C3.99647 17.7167 4.0923 17.4792 4.28397 17.2875C4.47564 17.0958 4.71314 17 4.99647 17H5.99647V10C5.99647 8.61667 6.41314 7.3875 7.24647 6.3125C8.0798 5.2375 9.16314 4.53333 10.4965 4.2V3.5C10.4965 3.08333 10.6423 2.72917 10.934 2.4375C11.2256 2.14583 11.5798 2 11.9965 2C12.4131 2 12.7673 2.14583 13.059 2.4375C13.3506 2.72917 13.4965 3.08333 13.4965 3.5V4.2C14.8298 4.53333 15.9131 5.2375 16.7465 6.3125C17.5798 7.3875 17.9965 8.61667 17.9965 10V17H18.9965C19.2798 17 19.5173 17.0958 19.709 17.2875C19.9006 17.4792 19.9965 17.7167 19.9965 18C19.9965 18.2833 19.9006 18.5208 19.709 18.7125C19.5173 18.9042 19.2798 19 18.9965 19H4.99647ZM11.9965 22C11.4465 22 10.9756 21.8042 10.584 21.4125C10.1923 21.0208 9.99647 20.55 9.99647 20H13.9965C13.9965 20.55 13.8006 21.0208 13.409 21.4125C13.0173 21.8042 12.5465 22 11.9965 22ZM7.99647 17H15.9965V10C15.9965 8.9 15.6048 7.95833 14.8215 7.175C14.0381 6.39167 13.0965 6 11.9965 6C10.8965 6 9.9548 6.39167 9.17147 7.175C8.38814 7.95833 7.99647 8.9 7.99647 10V17ZM2.99647 10C2.71314 10 2.47564 9.89167 2.28397 9.675C2.0923 9.45833 2.01314 9.20833 2.04647 8.925C2.1798 7.675 2.5298 6.5125 3.09647 5.4375C3.66314 4.3625 4.38814 3.425 5.27147 2.625C5.48814 2.44167 5.73397 2.35833 6.00897 2.375C6.28397 2.39167 6.5048 2.51667 6.67147 2.75C6.83814 2.98333 6.9048 3.23333 6.87147 3.5C6.83814 3.76667 6.71314 4 6.49647 4.2C5.84647 4.81667 5.31314 5.53333 4.89647 6.35C4.4798 7.16667 4.2048 8.05 4.07147 9C4.03814 9.28333 3.92147 9.52083 3.72147 9.7125C3.52147 9.90417 3.2798 10 2.99647 10ZM20.9965 10C20.7131 10 20.4715 9.90417 20.2715 9.7125C20.0715 9.52083 19.9548 9.28333 19.9215 9C19.7881 8.05 19.5131 7.16667 19.0965 6.35C18.6798 5.53333 18.1465 4.81667 17.4965 4.2C17.2798 4 17.1548 3.76667 17.1215 3.5C17.0881 3.23333 17.1548 2.98333 17.3215 2.75C17.4881 2.51667 17.709 2.39167 17.984 2.375C18.259 2.35833 18.5048 2.44167 18.7215 2.625C19.6048 3.425 20.3298 4.3625 20.8965 5.4375C21.4631 6.5125 21.8131 7.675 21.9465 8.925C21.9798 9.20833 21.9006 9.45833 21.709 9.675C21.5173 9.89167 21.2798 10 20.9965 10Z" fill="#1C1B1F"/>
</g>
</g>
<defs>
<clipPath id="clip0_933_4175">
<rect width="24" height="24" fill="white"/>
</clipPath>
</defs>
</svg>
